<svg xmlns="http://www.w3.org/2000/svg" version="1.1" xmlns:xlink="http://www.w3.org/1999/xlink" xmlns:svgjs="http://svgjs.com/svgjs" width="512" height="512" x="0" y="0" viewBox="0 0 24 24" style="enable-background:new 0 0 512 512" xml:space="preserve" class=""><g transform="matrix(0.9700000000000001,0,0,0.9700000000000001,0.35999995708465704,0.360000000000003)"><g xmlns="http://www.w3.org/2000/svg"><path d="m15 22c-.6 0-1-.4-1-1v-12c0-.6.4-1 1-1s1 .4 1 1v12c0 .6-.4 1-1 1z" fill="#ff515e" data-original="#000000" class=""></path></g><g xmlns="http://www.w3.org/2000/svg"><path d="m9 16c-.6 0-1-.4-1-1v-12c0-.6.4-1 1-1s1 .4 1 1v12c0 .6-.4 1-1 1z" fill="#ff515e" data-original="#000000" class=""></path></g><g xmlns="http://www.w3.org/2000/svg"><path d="m15 21.9c-.3 0-.6-.1-.8-.3l-2.9-2.9c-.4-.4-.4-1 0-1.4s1-.4 1.4 0l2.3 2.3 2.3-2.3c.4-.4 1-.4 1.4 0s.4 1 0 1.4l-2.9 2.9c-.2.2-.5.3-.8.3z" fill="#ff515e" data-original="#000000" class=""></path></g><g xmlns="http://www.w3.org/2000/svg"><path d="m12 7c-.3 0-.5-.1-.7-.3l-2.3-2.3-2.3 2.3c-.4.4-1 .4-1.4 0s-.4-1 0-1.4l2.9-2.9c.4-.4 1.2-.4 1.6 0l2.9 2.9c.4.4.4 1 0 1.4-.2.2-.4.3-.7.3z" fill="#ff515e" data-original="#000000" class=""></path></g></g></svg>