<svg xmlns="http://www.w3.org/2000/svg" width="512" height="512" viewBox="0 0 1707 1707" style="enable-background:new 0 0 512 512" >
<g>
<g xmlns="http://www.w3.org/2000/svg" id="Layer_x0020_1"><g id="_567180360"><g><path d="m1623 1427h-1539c-46 0-84-37-84-84v-98-882c0-46 38-84 84-84h1539c46 0 83 38 83 84v881 1 98c0 47-37 84-83 84zm-1589-199h1639v-865c0-27-23-50-50-50h-1539c-28 0-50 23-50 50zm1123 34h-304-303-303-213zm516 0v81-81h-213-303z" fill="#ff515e" data-original="#000000" class=""></path></g><path d="m258 914h-23c-46 0-84-38-84-84v-534c0-9 8-17 17-17h157c10 0 17 8 17 17v534c0 46-38 84-84 84z" fill="#ff515e" data-original="#000000" class=""></path><path d="m562 914h-24c-46 0-84-38-84-84v-534c0-9 8-17 17-17h158c9 0 16 8 16 17v534c0 46-37 84-83 84z" fill="#ff515e" data-original="#000000" class=""></path><path d="m865 914h-23c-46 0-84-38-84-84v-534c0-9 7-17 17-17h157c9 0 17 8 17 17v534c0 46-38 84-84 84z" fill="#ff515e" data-original="#000000" class=""></path><path d="m1168 914h-23c-46 0-84-38-84-84v-534c0-9 8-17 17-17h157c10 0 17 8 17 17v534c0 46-37 84-84 84z" fill="#ff515e" data-original="#000000" class=""></path><path d="m1472 914h-23c-47 0-84-38-84-84v-534c0-9 7-17 16-17h158c9 0 17 8 17 17v534c0 46-38 84-84 84z" fill="#ff515e" data-original="#000000" class=""></path><path d="m247 1262c-10 0-17-8-17-17v-348c0-9 7-17 17-17 9 0 16 8 16 17v348c0 9-7 17-16 17z" fill="#ff515e" data-original="#000000" class=""></path><path d="m550 1262c-9 0-17-8-17-17v-348c0-9 8-17 17-17s17 8 17 17v348c0 9-8 17-17 17z" fill="#ff515e" data-original="#000000" class=""></path><path d="m853 1262c-9 0-16-8-16-17v-348c0-9 7-17 16-17 10 0 17 8 17 17v348c0 9-7 17-17 17z" fill="#ff515e" data-original="#000000" class=""></path><path d="m1157 1262c-10 0-17-8-17-17v-348c0-9 7-17 17-17 9 0 16 8 16 17v348c0 9-7 17-16 17z" fill="#ff515e" data-original="#000000" class=""></path><path d="m1460 1262c-9 0-17-8-17-17v-348c0-9 8-17 17-17s17 8 17 17v348c0 9-8 17-17 17z" fill="#ff515e" data-original="#000000" class=""></path></g></g></g></svg>