<svg xmlns="http://www.w3.org/2000/svg" version="1.1" xmlns:xlink="http://www.w3.org/1999/xlink" xmlns:svgjs="http://svgjs.com/svgjs" width="512" height="512" x="0" y="0" viewBox="0 0 510 510" style="enable-background:new 0 0 512 512" xml:space="preserve" class=""><g><g xmlns="http://www.w3.org/2000/svg"><path d="m356.993 259.983c30.631-28.37 48.007-67.907 48.007-109.983 0-82.71-67.29-150-150-150s-150 67.29-150 150c0 42.075 17.376 81.614 48.007 109.983-11.964 48.841 12.372 98.619 56.993 119.873v100.144h-60v30h210v-30h-60v-100.145c44.678-21.281 68.941-71.097 56.993-119.872zm-176.993 25.017c0-17.598 5.832-28.317 7.81-35.008-2.4-2.889-52.81-33.377-52.81-99.992 0-66.168 53.832-120 120-120s120 53.832 120 120c0 66.342-50.451 97.149-52.811 99.992 2.006 6.791 7.811 17.452 7.811 35.008 0 41.355-33.645 75-75 75s-75-33.645-75-75zm90 195h-30v-91.076c9.977 1.434 20.006 1.436 30 0z" fill="#ff515e" data-original="#000000" class=""></path><path d="m345 150c0-49.626-40.374-90-90-90s-90 40.374-90 90c0 36.293 20.549 56.491 22.506 60h134.988c1.845-3.308 22.506-23.762 22.506-60zm-38.022 30h-32.767l10.341-41.362-29.104-7.275-12.159 48.637h-40.267c-5.268-9.078-8.023-19.321-8.023-30 0-33.084 26.916-60 60-60s60 26.916 60 60c.001 10.679-2.754 20.922-8.021 30z" fill="#ff515e" data-original="#000000" class=""></path><path d="m300 285c0-24.813-20.186-45-45-45s-45 20.187-45 45c0 24.814 20.186 45 45 45s45-20.186 45-45zm-60 0c0-8.271 6.729-15 15-15 8.272 0 15 6.729 15 15 0 8.272-6.728 15-15 15-8.271 0-15-6.728-15-15z" fill="#ff515e" data-original="#000000" class=""></path></g></g></svg>